<?xml version="1.0" encoding="UTF-8" standalone="no"?>
<!DOCTYPE svg PUBLIC "-//W3C//DTD SVG 1.1//EN"
 "http://www.w3.org/Graphics/SVG/1.1/DTD/svg11.dtd">
<!-- Generated by graphviz version 13.1.2 (20250808.2320)
 -->
<!-- Title: dependency&#45;cruiser output Pages: 1 -->
<svg width="524pt" height="559pt"
 viewBox="0.00 0.00 524.00 559.00" xmlns="http://www.w3.org/2000/svg" xmlns:xlink="http://www.w3.org/1999/xlink">
<g id="graph0" class="graph" transform="scale(1 1) rotate(0) translate(4 555)">
<title>dependency&#45;cruiser output</title>
<polygon fill="white" stroke="none" points="-4,4 -4,-555 519.5,-555 519.5,4 -4,4"/>
<g id="clust1" class="cluster">
<title>cluster_node_modules</title>
<path fill="#ffffff" stroke="black" stroke-width="2" d="M409,-8C409,-8 474,-8 474,-8 480,-8 486,-14 486,-20 486,-20 486,-260 486,-260 486,-266 480,-272 474,-272 474,-272 409,-272 409,-272 403,-272 397,-266 397,-260 397,-260 397,-20 397,-20 397,-14 403,-8 409,-8"/>
<text xml:space="preserve" text-anchor="middle" x="441.5" y="-259.45" font-family="Helvetica,sans-Serif" font-weight="bold" font-size="9.00">node_modules</text>
</g>
<g id="clust2" class="cluster">
<title>cluster_node_modules/@prisma</title>
<path fill="#ffffff" stroke="black" stroke-width="2" d="M418.5,-166C418.5,-166 464.5,-166 464.5,-166 470.5,-166 476.5,-172 476.5,-178 476.5,-178 476.5,-207 476.5,-207 476.5,-213 470.5,-219 464.5,-219 464.5,-219 418.5,-219 418.5,-219 412.5,-219 406.5,-213 406.5,-207 406.5,-207 406.5,-178 406.5,-178 406.5,-172 412.5,-166 418.5,-166"/>
<text xml:space="preserve" text-anchor="middle" x="441.5" y="-206.45" font-family="Helvetica,sans-Serif" font-weight="bold" font-size="9.00">@prisma</text>
</g>
<g id="clust3" class="cluster">
<title>cluster_src</title>
<path fill="#ffffff" stroke="black" stroke-width="2" d="M20,-280C20,-280 495.5,-280 495.5,-280 501.5,-280 507.5,-286 507.5,-292 507.5,-292 507.5,-531 507.5,-531 507.5,-537 501.5,-543 495.5,-543 495.5,-543 20,-543 20,-543 14,-543 8,-537 8,-531 8,-531 8,-292 8,-292 8,-286 14,-280 20,-280"/>
<text xml:space="preserve" text-anchor="middle" x="257.75" y="-530.45" font-family="Helvetica,sans-Serif" font-weight="bold" font-size="9.00">src</text>
</g>
<g id="clust4" class="cluster">
<title>cluster_src/controllers</title>
<path fill="#ffffff" stroke="black" stroke-width="2" d="M144.88,-298C144.88,-298 240.62,-298 240.62,-298 246.62,-298 252.62,-304 252.62,-310 252.62,-310 252.62,-401 252.62,-401 252.62,-407 246.62,-413 240.62,-413 240.62,-413 144.88,-413 144.88,-413 138.88,-413 132.88,-407 132.88,-401 132.88,-401 132.88,-310 132.88,-310 132.88,-304 138.88,-298 144.88,-298"/>
<text xml:space="preserve" text-anchor="middle" x="192.75" y="-400.45" font-family="Helvetica,sans-Serif" font-weight="bold" font-size="9.00">controllers</text>
</g>
<g id="clust5" class="cluster">
<title>cluster_src/middlewares</title>
<path fill="#ffffff" stroke="black" stroke-width="2" d="M140.75,-421C140.75,-421 244.75,-421 244.75,-421 250.75,-421 256.75,-427 256.75,-433 256.75,-433 256.75,-493 256.75,-493 256.75,-499 250.75,-505 244.75,-505 244.75,-505 140.75,-505 140.75,-505 134.75,-505 128.75,-499 128.75,-493 128.75,-493 128.75,-433 128.75,-433 128.75,-427 134.75,-421 140.75,-421"/>
<text xml:space="preserve" text-anchor="middle" x="192.75" y="-492.45" font-family="Helvetica,sans-Serif" font-weight="bold" font-size="9.00">middlewares</text>
</g>
<g id="clust6" class="cluster">
<title>cluster_src/models</title>
<path fill="#ffffff" stroke="black" stroke-width="2" d="M289.12,-288C289.12,-288 351.12,-288 351.12,-288 357.12,-288 363.12,-294 363.12,-300 363.12,-300 363.12,-329 363.12,-329 363.12,-335 357.12,-341 351.12,-341 351.12,-341 289.12,-341 289.12,-341 283.12,-341 277.12,-335 277.12,-329 277.12,-329 277.12,-300 277.12,-300 277.12,-294 283.12,-288 289.12,-288"/>
<text xml:space="preserve" text-anchor="middle" x="320.12" y="-328.45" font-family="Helvetica,sans-Serif" font-weight="bold" font-size="9.00">models</text>
</g>
<g id="clust7" class="cluster">
<title>cluster_src/routes</title>
<path fill="#ffffff" stroke="black" stroke-width="2" d="M28,-298C28,-298 108.75,-298 108.75,-298 114.75,-298 120.75,-304 120.75,-310 120.75,-310 120.75,-401 120.75,-401 120.75,-407 114.75,-413 108.75,-413 108.75,-413 28,-413 28,-413 22,-413 16,-407 16,-401 16,-401 16,-310 16,-310 16,-304 22,-298 28,-298"/>
<text xml:space="preserve" text-anchor="middle" x="68.38" y="-400.45" font-family="Helvetica,sans-Serif" font-weight="bold" font-size="9.00">routes</text>
</g>
<g id="clust8" class="cluster">
<title>cluster_src/services</title>
<path fill="#ffffff" stroke="black" stroke-width="2" d="M276.75,-349C276.75,-349 363.5,-349 363.5,-349 369.5,-349 375.5,-355 375.5,-361 375.5,-361 375.5,-452 375.5,-452 375.5,-458 369.5,-464 363.5,-464 363.5,-464 276.75,-464 276.75,-464 270.75,-464 264.75,-458 264.75,-452 264.75,-452 264.75,-361 264.75,-361 264.75,-355 270.75,-349 276.75,-349"/>
<text xml:space="preserve" text-anchor="middle" x="320.12" y="-451.45" font-family="Helvetica,sans-Serif" font-weight="bold" font-size="9.00">services</text>
</g>
<g id="clust9" class="cluster">
<title>cluster_src/utils</title>
<path fill="#ffffff" stroke="black" stroke-width="2" d="M395.5,-432C395.5,-432 487.5,-432 487.5,-432 493.5,-432 499.5,-438 499.5,-444 499.5,-444 499.5,-504 499.5,-504 499.5,-510 493.5,-516 487.5,-516 487.5,-516 395.5,-516 395.5,-516 389.5,-516 383.5,-510 383.5,-504 383.5,-504 383.5,-444 383.5,-444 383.5,-438 389.5,-432 395.5,-432"/>
<text xml:space="preserve" text-anchor="middle" x="441.5" y="-503.45" font-family="Helvetica,sans-Serif" font-weight="bold" font-size="9.00">utils</text>
</g>
<!-- node_modules/@prisma/client -->
<g id="node1" class="node">
<title>node_modules/@prisma/client</title>
<g id="a_node1"><a xlink:href="https://www.npmjs.com/package/@prisma/client" xlink:title="client">
<polygon fill="#c40b0a" fill-opacity="0.101961" stroke="black" points="468.5,-192.25 416.56,-192.25 414.5,-190.19 414.5,-173.75 466.44,-173.75 468.5,-175.81 468.5,-192.25"/>
<polyline fill="none" stroke="black" points="466.44,-190.19 414.5,-190.19"/>
<polyline fill="none" stroke="black" points="466.44,-190.19 466.44,-173.75"/>
<polyline fill="none" stroke="black" points="466.44,-190.19 468.5,-192.25"/>
<text xml:space="preserve" text-anchor="start" x="430.62" y="-179.7" font-family="Helvetica,sans-Serif" font-size="9.00" fill="#c40b0a">client</text>
</a>
</g>
</g>
<!-- node_modules/axios -->
<g id="node2" class="node">
<title>node_modules/axios</title>
<g id="a_node2"><a xlink:href="https://www.npmjs.com/package/axios" xlink:title="axios">
<polygon fill="#c40b0a" fill-opacity="0.101961" stroke="black" points="468.5,-245.25 416.56,-245.25 414.5,-243.19 414.5,-226.75 466.44,-226.75 468.5,-228.81 468.5,-245.25"/>
<polyline fill="none" stroke="black" points="466.44,-243.19 414.5,-243.19"/>
<polyline fill="none" stroke="black" points="466.44,-243.19 466.44,-226.75"/>
<polyline fill="none" stroke="black" points="466.44,-243.19 468.5,-245.25"/>
<text xml:space="preserve" text-anchor="start" x="430.62" y="-232.7" font-family="Helvetica,sans-Serif" font-size="9.00" fill="#c40b0a">axios</text>
</a>
</g>
</g>
<!-- node_modules/bcrypt -->
<g id="node3" class="node">
<title>node_modules/bcrypt</title>
<g id="a_node3"><a xlink:href="https://www.npmjs.com/package/bcrypt" xlink:title="bcrypt">
<polygon fill="#c40b0a" fill-opacity="0.101961" stroke="black" points="468.5,-65.25 416.56,-65.25 414.5,-63.19 414.5,-46.75 466.44,-46.75 468.5,-48.81 468.5,-65.25"/>
<polyline fill="none" stroke="black" points="466.44,-63.19 414.5,-63.19"/>
<polyline fill="none" stroke="black" points="466.44,-63.19 466.44,-46.75"/>
<polyline fill="none" stroke="black" points="466.44,-63.19 468.5,-65.25"/>
<text xml:space="preserve" text-anchor="start" x="429.12" y="-52.7" font-family="Helvetica,sans-Serif" font-size="9.00" fill="#c40b0a">bcrypt</text>
</a>
</g>
</g>
<!-- node_modules/express -->
<g id="node4" class="node">
<title>node_modules/express</title>
<g id="a_node4"><a xlink:href="https://www.npmjs.com/package/express" xlink:title="express">
<polygon fill="#c40b0a" fill-opacity="0.101961" stroke="black" points="468.5,-34.25 416.56,-34.25 414.5,-32.19 414.5,-15.75 466.44,-15.75 468.5,-17.81 468.5,-34.25"/>
<polyline fill="none" stroke="black" points="466.44,-32.19 414.5,-32.19"/>
<polyline fill="none" stroke="black" points="466.44,-32.19 466.44,-15.75"/>
<polyline fill="none" stroke="black" points="466.44,-32.19 468.5,-34.25"/>
<text xml:space="preserve" text-anchor="start" x="425.38" y="-21.7" font-family="Helvetica,sans-Serif" font-size="9.00" fill="#c40b0a">express</text>
</a>
</g>
</g>
<!-- node_modules/jsonwebtoken -->
<g id="node5" class="node">
<title>node_modules/jsonwebtoken</title>
<g id="a_node5"><a xlink:href="https://www.npmjs.com/package/jsonwebtoken" xlink:title="jsonwebtoken">
<polygon fill="#c40b0a" fill-opacity="0.101961" stroke="black" points="478,-127.25 407.06,-127.25 405,-125.19 405,-108.75 475.94,-108.75 478,-110.81 478,-127.25"/>
<polyline fill="none" stroke="black" points="475.94,-125.19 405,-125.19"/>
<polyline fill="none" stroke="black" points="475.94,-125.19 475.94,-108.75"/>
<polyline fill="none" stroke="black" points="475.94,-125.19 478,-127.25"/>
<text xml:space="preserve" text-anchor="start" x="413" y="-114.7" font-family="Helvetica,sans-Serif" font-size="9.00" fill="#c40b0a">jsonwebtoken</text>
</a>
</g>
</g>
<!-- node_modules/puppeteer -->
<g id="node6" class="node">
<title>node_modules/puppeteer</title>
<g id="a_node6"><a xlink:href="https://www.npmjs.com/package/puppeteer" xlink:title="puppeteer">
<polygon fill="#c40b0a" fill-opacity="0.101961" stroke="black" points="470.5,-158.25 414.56,-158.25 412.5,-156.19 412.5,-139.75 468.44,-139.75 470.5,-141.81 470.5,-158.25"/>
<polyline fill="none" stroke="black" points="468.44,-156.19 412.5,-156.19"/>
<polyline fill="none" stroke="black" points="468.44,-156.19 468.44,-139.75"/>
<polyline fill="none" stroke="black" points="468.44,-156.19 470.5,-158.25"/>
<text xml:space="preserve" text-anchor="start" x="420.5" y="-145.7" font-family="Helvetica,sans-Serif" font-size="9.00" fill="#c40b0a">puppeteer</text>
</a>
</g>
</g>
<!-- node_modules/validator -->
<g id="node7" class="node">
<title>node_modules/validator</title>
<g id="a_node7"><a xlink:href="https://www.npmjs.com/package/validator" xlink:title="validator">
<polygon fill="#c40b0a" fill-opacity="0.101961" stroke="black" points="468.5,-96.25 416.56,-96.25 414.5,-94.19 414.5,-77.75 466.44,-77.75 468.5,-79.81 468.5,-96.25"/>
<polyline fill="none" stroke="black" points="466.44,-94.19 414.5,-94.19"/>
<polyline fill="none" stroke="black" points="466.44,-94.19 466.44,-77.75"/>
<polyline fill="none" stroke="black" points="466.44,-94.19 468.5,-96.25"/>
<text xml:space="preserve" text-anchor="start" x="423.88" y="-83.7" font-family="Helvetica,sans-Serif" font-size="9.00" fill="#c40b0a">validator</text>
</a>
</g>
</g>
<!-- src/controllers/AuthController.js -->
<g id="node8" class="node">
<title>src/controllers/AuthController.js</title>
<g id="a_node8"><a xlink:href="src/controllers/AuthController.js" xlink:title="AuthController.js">
<path fill="#ffffcc" stroke="black" d="M228.33,-324.25C228.33,-324.25 157.17,-324.25 157.17,-324.25 154.08,-324.25 151,-321.17 151,-318.08 151,-318.08 151,-311.92 151,-311.92 151,-308.83 154.08,-305.75 157.17,-305.75 157.17,-305.75 228.33,-305.75 228.33,-305.75 231.42,-305.75 234.5,-308.83 234.5,-311.92 234.5,-311.92 234.5,-318.08 234.5,-318.08 234.5,-321.17 231.42,-324.25 228.33,-324.25"/>
<text xml:space="preserve" text-anchor="start" x="159" y="-311.7" font-family="Helvetica,sans-Serif" font-size="9.00">AuthController.js</text>
</a>
</g>
</g>
<!-- src/controllers/AuthController.js&#45;&gt;node_modules/bcrypt -->
<g id="edge5" class="edge">
<title>src/controllers/AuthController.js&#45;&gt;node_modules/bcrypt</title>
<g id="a_edge5"><a xlink:title="no&#45;non&#45;package&#45;json">
<path fill="none" stroke="red" d="M203.64,-305.49C216.76,-293.26 241.04,-271.93 264.75,-258 310.56,-231.09 344.6,-256.22 375.5,-213 393.75,-187.47 363.84,-96.46 383.5,-72 389.29,-64.79 398.05,-60.68 406.98,-58.37"/>
<polygon fill="red" stroke="red" points="407.19,-60.47 412.64,-57.19 406.33,-56.35 407.19,-60.47"/>
</a>
</g>
<text xml:space="preserve" text-anchor="middle" x="281.87" y="-233.06" font-family="Helvetica,sans-Serif" font-size="9.00" fill="red">no&#45;non&#45;package&#45;json</text>
</g>
<!-- src/models/UserModel.js -->
<g id="node9" class="node">
<title>src/models/UserModel.js</title>
<g id="a_node9"><a xlink:href="src/models/UserModel.js" xlink:title="UserModel.js">
<path fill="#ffffcc" stroke="black" d="M348.96,-314.25C348.96,-314.25 291.29,-314.25 291.29,-314.25 288.21,-314.25 285.12,-311.17 285.12,-308.08 285.12,-308.08 285.12,-301.92 285.12,-301.92 285.12,-298.83 288.21,-295.75 291.29,-295.75 291.29,-295.75 348.96,-295.75 348.96,-295.75 352.04,-295.75 355.12,-298.83 355.12,-301.92 355.12,-301.92 355.12,-308.08 355.12,-308.08 355.12,-311.17 352.04,-314.25 348.96,-314.25"/>
<text xml:space="preserve" text-anchor="start" x="293.12" y="-301.7" font-family="Helvetica,sans-Serif" font-size="9.00">UserModel.js</text>
</a>
</g>
</g>
<!-- src/controllers/AuthController.js&#45;&gt;src/models/UserModel.js -->
<g id="edge1" class="edge">
<title>src/controllers/AuthController.js&#45;&gt;src/models/UserModel.js</title>
<path fill="none" stroke="#000000" stroke-width="2" stroke-opacity="0.200000" d="M234.8,-311.73C247.92,-310.68 262.47,-309.52 275.74,-308.46"/>
<polygon fill="#000000" fill-opacity="0.200000" stroke="#000000" stroke-width="2" stroke-opacity="0.200000" points="275.86,-310.56 281.68,-307.99 275.53,-306.37 275.86,-310.56"/>
</g>
<!-- src/services/JwtService.js -->
<g id="node10" class="node">
<title>src/services/JwtService.js</title>
<g id="a_node10"><a xlink:href="src/services/JwtService.js" xlink:title="JwtService.js">
<path fill="#ffffcc" stroke="black" d="M348.58,-406.25C348.58,-406.25 291.67,-406.25 291.67,-406.25 288.58,-406.25 285.5,-403.17 285.5,-400.08 285.5,-400.08 285.5,-393.92 285.5,-393.92 285.5,-390.83 288.58,-387.75 291.67,-387.75 291.67,-387.75 348.58,-387.75 348.58,-387.75 351.67,-387.75 354.75,-390.83 354.75,-393.92 354.75,-393.92 354.75,-400.08 354.75,-400.08 354.75,-403.17 351.67,-406.25 348.58,-406.25"/>
<text xml:space="preserve" text-anchor="start" x="293.5" y="-393.7" font-family="Helvetica,sans-Serif" font-size="9.00">JwtService.js</text>
</a>
</g>
</g>
<!-- src/controllers/AuthController.js&#45;&gt;src/services/JwtService.js -->
<g id="edge2" class="edge">
<title>src/controllers/AuthController.js&#45;&gt;src/services/JwtService.js</title>
<path fill="none" stroke="#000000" stroke-width="2" stroke-opacity="0.200000" d="M234.81,-318.22C243.06,-320.69 250.96,-324.67 256.75,-331 271.93,-347.61 249.88,-364.11 264.75,-381 268.04,-384.74 272.16,-387.63 276.64,-389.85"/>
<polygon fill="#000000" fill-opacity="0.200000" stroke="#000000" stroke-width="2" stroke-opacity="0.200000" points="275.85,-391.8 282.2,-392.06 277.41,-387.89 275.85,-391.8"/>
</g>
<!-- src/services/ValidatorService.js -->
<g id="node11" class="node">
<title>src/services/ValidatorService.js</title>
<g id="a_node11"><a xlink:href="src/services/ValidatorService.js" xlink:title="ValidatorService.js">
<path fill="#ffffcc" stroke="black" d="M359.83,-375.25C359.83,-375.25 280.42,-375.25 280.42,-375.25 277.33,-375.25 274.25,-372.17 274.25,-369.08 274.25,-369.08 274.25,-362.92 274.25,-362.92 274.25,-359.83 277.33,-356.75 280.42,-356.75 280.42,-356.75 359.83,-356.75 359.83,-356.75 362.92,-356.75 366,-359.83 366,-362.92 366,-362.92 366,-369.08 366,-369.08 366,-372.17 362.92,-375.25 359.83,-375.25"/>
<text xml:space="preserve" text-anchor="start" x="282.25" y="-362.7" font-family="Helvetica,sans-Serif" font-size="9.00">ValidatorService.js</text>
</a>
</g>
</g>
<!-- src/controllers/AuthController.js&#45;&gt;src/services/ValidatorService.js -->
<g id="edge3" class="edge">
<title>src/controllers/AuthController.js&#45;&gt;src/services/ValidatorService.js</title>
<path fill="none" stroke="#000000" stroke-width="2" stroke-opacity="0.200000" d="M234.79,-320.56C242.57,-322.91 250.29,-326.25 256.75,-331 262.22,-335.02 259.57,-339.62 264.75,-344 268.64,-347.29 273.08,-350.13 277.71,-352.57"/>
<polygon fill="#000000" fill-opacity="0.200000" stroke="#000000" stroke-width="2" stroke-opacity="0.200000" points="276.56,-354.35 282.88,-355.02 278.36,-350.56 276.56,-354.35"/>
</g>
<!-- src/utils/Response.js -->
<g id="node12" class="node">
<title>src/utils/Response.js</title>
<g id="a_node12"><a xlink:href="src/utils/Response.js" xlink:title="Response.js">
<path fill="#ffffcc" stroke="black" d="M468.83,-489.25C468.83,-489.25 414.17,-489.25 414.17,-489.25 411.08,-489.25 408,-486.17 408,-483.08 408,-483.08 408,-476.92 408,-476.92 408,-473.83 411.08,-470.75 414.17,-470.75 414.17,-470.75 468.83,-470.75 468.83,-470.75 471.92,-470.75 475,-473.83 475,-476.92 475,-476.92 475,-483.08 475,-483.08 475,-486.17 471.92,-489.25 468.83,-489.25"/>
<text xml:space="preserve" text-anchor="start" x="416" y="-476.7" font-family="Helvetica,sans-Serif" font-size="9.00">Response.js</text>
</a>
</g>
</g>
<!-- src/controllers/AuthController.js&#45;&gt;src/utils/Response.js -->
<g id="edge4" class="edge">
<title>src/controllers/AuthController.js&#45;&gt;src/utils/Response.js</title>
<path fill="none" stroke="#000000" stroke-width="2" stroke-opacity="0.200000" d="M234.96,-317.7C243.31,-320.18 251.22,-324.3 256.75,-331 276.03,-354.34 243.5,-445.43 264.75,-467 269.41,-471.73 348.55,-476.02 399.03,-478.3"/>
<polygon fill="#000000" fill-opacity="0.200000" stroke="#000000" stroke-width="2" stroke-opacity="0.200000" points="398.67,-480.38 404.76,-478.55 398.86,-476.19 398.67,-480.38"/>
</g>
<!-- src/models/UserModel.js&#45;&gt;node_modules/@prisma/client -->
<g id="edge16" class="edge">
<title>src/models/UserModel.js&#45;&gt;node_modules/@prisma/client</title>
<path fill="none" stroke="#000000" stroke-opacity="0.200000" d="M353.56,-295.38C361.98,-291.34 370.18,-285.72 375.5,-278 385.89,-262.93 371.4,-209.74 383.5,-196 389.42,-189.27 398.04,-185.64 406.78,-183.77"/>
<polygon fill="#000000" fill-opacity="0.200000" stroke="#000000" stroke-opacity="0.200000" points="407.03,-185.86 412.61,-182.82 406.35,-181.71 407.03,-185.86"/>
</g>
<!-- src/services/JwtService.js&#45;&gt;node_modules/jsonwebtoken -->
<g id="edge29" class="edge">
<title>src/services/JwtService.js&#45;&gt;node_modules/jsonwebtoken</title>
<path fill="none" stroke="#000000" stroke-opacity="0.200000" d="M355.21,-393.81C363.03,-391.41 370.5,-387.46 375.5,-381 392.3,-359.28 366.56,-155.61 383.5,-134 387.16,-129.34 392.06,-125.96 397.45,-123.53"/>
<polygon fill="#000000" fill-opacity="0.200000" stroke="#000000" stroke-opacity="0.200000" points="398.18,-125.5 403.08,-121.46 396.73,-121.56 398.18,-125.5"/>
</g>
<!-- src/services/ValidatorService.js&#45;&gt;node_modules/validator -->
<g id="edge30" class="edge">
<title>src/services/ValidatorService.js&#45;&gt;node_modules/validator</title>
<path fill="none" stroke="#000000" stroke-opacity="0.200000" d="M360.98,-356.31C366.67,-353.26 371.83,-349.26 375.5,-344 390.84,-322.04 366.96,-124.08 383.5,-103 389.21,-95.73 397.94,-91.59 406.87,-89.28"/>
<polygon fill="#000000" fill-opacity="0.200000" stroke="#000000" stroke-opacity="0.200000" points="407.09,-91.38 412.54,-88.1 406.23,-87.27 407.09,-91.38"/>
</g>
<!-- src/controllers/FretebrasController.js -->
<g id="node13" class="node">
<title>src/controllers/FretebrasController.js</title>
<g id="a_node13"><a xlink:href="src/controllers/FretebrasController.js" xlink:title="FretebrasController.js">
<path fill="#ffffcc" stroke="black" d="M238.46,-386.25C238.46,-386.25 147.04,-386.25 147.04,-386.25 143.96,-386.25 140.88,-383.17 140.88,-380.08 140.88,-380.08 140.88,-373.92 140.88,-373.92 140.88,-370.83 143.96,-367.75 147.04,-367.75 147.04,-367.75 238.46,-367.75 238.46,-367.75 241.54,-367.75 244.62,-370.83 244.62,-373.92 244.62,-373.92 244.62,-380.08 244.62,-380.08 244.62,-383.17 241.54,-386.25 238.46,-386.25"/>
<text xml:space="preserve" text-anchor="start" x="148.88" y="-373.7" font-family="Helvetica,sans-Serif" font-size="9.00">FretebrasController.js</text>
</a>
</g>
</g>
<!-- src/controllers/FretebrasController.js&#45;&gt;src/utils/Response.js -->
<g id="edge7" class="edge">
<title>src/controllers/FretebrasController.js&#45;&gt;src/utils/Response.js</title>
<path fill="none" stroke="#000000" stroke-width="2" stroke-opacity="0.200000" d="M218.37,-386.67C232,-393.36 247.93,-403.66 256.75,-418 265.3,-431.9 252.6,-480.11 264.75,-491 283.8,-508.07 353.04,-498.13 398.72,-489.19"/>
<polygon fill="#000000" fill-opacity="0.200000" stroke="#000000" stroke-width="2" stroke-opacity="0.200000" points="399.08,-491.26 404.55,-488.02 398.25,-487.14 399.08,-491.26"/>
</g>
<!-- src/services/FretebrasService.js -->
<g id="node14" class="node">
<title>src/services/FretebrasService.js</title>
<g id="a_node14"><a xlink:href="src/services/FretebrasService.js" xlink:title="FretebrasService.js">
<path fill="#ffffcc" stroke="black" d="M361.33,-437.25C361.33,-437.25 278.92,-437.25 278.92,-437.25 275.83,-437.25 272.75,-434.17 272.75,-431.08 272.75,-431.08 272.75,-424.92 272.75,-424.92 272.75,-421.83 275.83,-418.75 278.92,-418.75 278.92,-418.75 361.33,-418.75 361.33,-418.75 364.42,-418.75 367.5,-421.83 367.5,-424.92 367.5,-424.92 367.5,-431.08 367.5,-431.08 367.5,-434.17 364.42,-437.25 361.33,-437.25"/>
<text xml:space="preserve" text-anchor="start" x="280.75" y="-424.7" font-family="Helvetica,sans-Serif" font-size="9.00">FretebrasService.js</text>
</a>
</g>
</g>
<!-- src/controllers/FretebrasController.js&#45;&gt;src/services/FretebrasService.js -->
<g id="edge6" class="edge">
<title>src/controllers/FretebrasController.js&#45;&gt;src/services/FretebrasService.js</title>
<path fill="none" stroke="#000000" stroke-width="2" stroke-opacity="0.200000" d="M211.17,-386.64C225.31,-394.21 245.93,-404.66 264.75,-412 267.91,-413.23 271.2,-414.42 274.54,-415.56"/>
<polygon fill="#000000" fill-opacity="0.200000" stroke="#000000" stroke-width="2" stroke-opacity="0.200000" points="273.62,-417.47 279.98,-417.33 274.92,-413.48 273.62,-417.47"/>
</g>
<!-- src/services/FretebrasService.js&#45;&gt;node_modules/axios -->
<g id="edge27" class="edge">
<title>src/services/FretebrasService.js&#45;&gt;node_modules/axios</title>
<path fill="none" stroke="#000000" stroke-opacity="0.200000" d="M366.58,-418.36C369.81,-416.59 372.84,-414.49 375.5,-412 422.4,-368.16 435.61,-287.5 439.21,-252.7"/>
<polygon fill="#000000" fill-opacity="0.200000" stroke="#000000" stroke-opacity="0.200000" points="441.26,-253.31 439.73,-247.14 437.08,-252.92 441.26,-253.31"/>
</g>
<!-- src/services/FretebrasService.js&#45;&gt;node_modules/puppeteer -->
<g id="edge28" class="edge">
<title>src/services/FretebrasService.js&#45;&gt;node_modules/puppeteer</title>
<path fill="none" stroke="#000000" stroke-opacity="0.200000" d="M367.77,-419.07C370.7,-417.13 373.33,-414.8 375.5,-412 392.44,-390.1 366.07,-184.51 383.5,-163 388.86,-156.38 396.8,-152.59 405.06,-150.49"/>
<polygon fill="#000000" fill-opacity="0.200000" stroke="#000000" stroke-opacity="0.200000" points="405.07,-152.63 410.54,-149.4 404.25,-148.51 405.07,-152.63"/>
</g>
<!-- src/utils/PuppeteerHelpers.js -->
<g id="node21" class="node">
<title>src/utils/PuppeteerHelpers.js</title>
<g id="a_node21"><a xlink:href="src/utils/PuppeteerHelpers.js" xlink:title="PuppeteerHelpers.js">
<path fill="#ffffcc" stroke="black" d="M485.33,-458.25C485.33,-458.25 397.67,-458.25 397.67,-458.25 394.58,-458.25 391.5,-455.17 391.5,-452.08 391.5,-452.08 391.5,-445.92 391.5,-445.92 391.5,-442.83 394.58,-439.75 397.67,-439.75 397.67,-439.75 485.33,-439.75 485.33,-439.75 488.42,-439.75 491.5,-442.83 491.5,-445.92 491.5,-445.92 491.5,-452.08 491.5,-452.08 491.5,-455.17 488.42,-458.25 485.33,-458.25"/>
<text xml:space="preserve" text-anchor="start" x="399.5" y="-445.7" font-family="Helvetica,sans-Serif" font-size="9.00">PuppeteerHelpers.js</text>
</a>
</g>
</g>
<!-- src/services/FretebrasService.js&#45;&gt;src/utils/PuppeteerHelpers.js -->
<g id="edge26" class="edge">
<title>src/services/FretebrasService.js&#45;&gt;src/utils/PuppeteerHelpers.js</title>
<path fill="none" stroke="#000000" stroke-width="2" stroke-opacity="0.200000" d="M367.96,-436.24C372.7,-437.07 377.55,-437.93 382.38,-438.78"/>
<polygon fill="#000000" fill-opacity="0.200000" stroke="#000000" stroke-width="2" stroke-opacity="0.200000" points="381.79,-440.8 388.06,-439.78 382.52,-436.67 381.79,-440.8"/>
</g>
<!-- src/controllers/UserController.js -->
<g id="node15" class="node">
<title>src/controllers/UserController.js</title>
<g id="a_node15"><a xlink:href="src/controllers/UserController.js" xlink:title="UserController.js">
<path fill="#ffffcc" stroke="black" d="M228.71,-355.25C228.71,-355.25 156.79,-355.25 156.79,-355.25 153.71,-355.25 150.62,-352.17 150.62,-349.08 150.62,-349.08 150.62,-342.92 150.62,-342.92 150.62,-339.83 153.71,-336.75 156.79,-336.75 156.79,-336.75 228.71,-336.75 228.71,-336.75 231.79,-336.75 234.88,-339.83 234.88,-342.92 234.88,-342.92 234.88,-349.08 234.88,-349.08 234.88,-352.17 231.79,-355.25 228.71,-355.25"/>
<text xml:space="preserve" text-anchor="start" x="158.62" y="-342.7" font-family="Helvetica,sans-Serif" font-size="9.00">UserController.js</text>
</a>
</g>
</g>
<!-- src/controllers/UserController.js&#45;&gt;node_modules/bcrypt -->
<g id="edge12" class="edge">
<title>src/controllers/UserController.js&#45;&gt;node_modules/bcrypt</title>
<g id="a_edge12"><a xlink:title="no&#45;non&#45;package&#45;json">
<path fill="none" stroke="red" d="M235.05,-342.61C243.19,-340.14 250.99,-336.2 256.75,-330 270.58,-315.12 251.6,-300.48 264.75,-285 298.53,-245.22 344.37,-287.89 375.5,-246 387.04,-230.47 371.46,-87.15 383.5,-72 389.25,-64.76 398,-60.63 406.93,-58.33"/>
<polygon fill="red" stroke="red" points="407.14,-60.43 412.59,-57.15 406.29,-56.31 407.14,-60.43"/>
</a>
</g>
<text xml:space="preserve" text-anchor="middle" x="279.54" y="-257.79" font-family="Helvetica,sans-Serif" font-size="9.00" fill="red">no&#45;non&#45;package&#45;json</text>
</g>
<!-- src/controllers/UserController.js&#45;&gt;src/models/UserModel.js -->
<g id="edge8" class="edge">
<title>src/controllers/UserController.js&#45;&gt;src/models/UserModel.js</title>
<path fill="none" stroke="#000000" stroke-width="2" stroke-opacity="0.200000" d="M235.32,-336.28C242.51,-334.36 249.88,-332.24 256.75,-330 267.41,-326.53 278.85,-322.14 288.99,-318.01"/>
<polygon fill="#000000" fill-opacity="0.200000" stroke="#000000" stroke-width="2" stroke-opacity="0.200000" points="289.62,-320.03 294.36,-315.79 288.02,-316.14 289.62,-320.03"/>
</g>
<!-- src/controllers/UserController.js&#45;&gt;src/services/JwtService.js -->
<g id="edge9" class="edge">
<title>src/controllers/UserController.js&#45;&gt;src/services/JwtService.js</title>
<path fill="none" stroke="#000000" stroke-width="2" stroke-opacity="0.200000" d="M235.06,-350.7C242.91,-353.12 250.59,-356.7 256.75,-362 263.7,-367.98 257.92,-374.9 264.75,-381 268.33,-384.2 272.51,-386.76 276.95,-388.8"/>
<polygon fill="#000000" fill-opacity="0.200000" stroke="#000000" stroke-width="2" stroke-opacity="0.200000" points="275.94,-390.67 282.3,-390.88 277.46,-386.75 275.94,-390.67"/>
</g>
<!-- src/controllers/UserController.js&#45;&gt;src/services/ValidatorService.js -->
<g id="edge10" class="edge">
<title>src/controllers/UserController.js&#45;&gt;src/services/ValidatorService.js</title>
<path fill="none" stroke="#000000" stroke-width="2" stroke-opacity="0.200000" d="M235.15,-352.6C244.75,-354.14 255.1,-355.79 265.15,-357.39"/>
<polygon fill="#000000" fill-opacity="0.200000" stroke="#000000" stroke-width="2" stroke-opacity="0.200000" points="264.63,-359.43 270.89,-358.31 265.3,-355.29 264.63,-359.43"/>
</g>
<!-- src/controllers/UserController.js&#45;&gt;src/utils/Response.js -->
<g id="edge11" class="edge">
<title>src/controllers/UserController.js&#45;&gt;src/utils/Response.js</title>
<path fill="none" stroke="#000000" stroke-width="2" stroke-opacity="0.200000" d="M235.24,-348.84C243.47,-351.33 251.25,-355.42 256.75,-362 273.17,-381.66 246.17,-459.37 264.75,-477 283.32,-494.63 353.07,-490.43 398.91,-485.45"/>
<polygon fill="#000000" fill-opacity="0.200000" stroke="#000000" stroke-width="2" stroke-opacity="0.200000" points="399.01,-487.55 404.73,-484.79 398.54,-483.38 399.01,-487.55"/>
</g>
<!-- src/middlewares/AuthMiddleware.js -->
<g id="node16" class="node">
<title>src/middlewares/AuthMiddleware.js</title>
<g id="a_node16"><a xlink:href="src/middlewares/AuthMiddleware.js" xlink:title="AuthMiddleware.js">
<path fill="#ffffcc" stroke="black" d="M232.46,-447.25C232.46,-447.25 153.04,-447.25 153.04,-447.25 149.96,-447.25 146.88,-444.17 146.88,-441.08 146.88,-441.08 146.88,-434.92 146.88,-434.92 146.88,-431.83 149.96,-428.75 153.04,-428.75 153.04,-428.75 232.46,-428.75 232.46,-428.75 235.54,-428.75 238.62,-431.83 238.62,-434.92 238.62,-434.92 238.62,-441.08 238.62,-441.08 238.62,-444.17 235.54,-447.25 232.46,-447.25"/>
<text xml:space="preserve" text-anchor="start" x="154.88" y="-434.7" font-family="Helvetica,sans-Serif" font-size="9.00">AuthMiddleware.js</text>
</a>
</g>
</g>
<!-- src/middlewares/AuthMiddleware.js&#45;&gt;src/services/JwtService.js -->
<g id="edge13" class="edge">
<title>src/middlewares/AuthMiddleware.js&#45;&gt;src/services/JwtService.js</title>
<path fill="none" stroke="#000000" stroke-width="2" stroke-opacity="0.200000" d="M222.02,-428.28C232.9,-424.5 245.42,-420.1 256.75,-416 260.32,-414.71 261.15,-414.2 264.75,-413 268.63,-411.7 272.68,-410.41 276.75,-409.14"/>
<polygon fill="#000000" fill-opacity="0.200000" stroke="#000000" stroke-width="2" stroke-opacity="0.200000" points="277.05,-411.25 282.17,-407.49 275.82,-407.23 277.05,-411.25"/>
</g>
<!-- src/middlewares/AuthMiddleware.js&#45;&gt;src/utils/Response.js -->
<g id="edge14" class="edge">
<title>src/middlewares/AuthMiddleware.js&#45;&gt;src/utils/Response.js</title>
<path fill="none" stroke="#000000" stroke-width="2" stroke-opacity="0.200000" d="M239.02,-442.61C245.72,-445.11 251.96,-448.74 256.75,-454 272.2,-470.96 247.31,-490.09 264.75,-505 307.64,-541.69 379.12,-513.09 416.32,-493.84"/>
<polygon fill="#000000" fill-opacity="0.200000" stroke="#000000" stroke-width="2" stroke-opacity="0.200000" points="417.17,-495.76 421.48,-491.09 415.2,-492.06 417.17,-495.76"/>
</g>
<!-- src/middlewares/FretebrasMiddleware.js -->
<g id="node17" class="node">
<title>src/middlewares/FretebrasMiddleware.js</title>
<g id="a_node17"><a xlink:href="src/middlewares/FretebrasMiddleware.js" xlink:title="FretebrasMiddleware.js">
<path fill="#ffffcc" stroke="black" d="M242.58,-478.25C242.58,-478.25 142.92,-478.25 142.92,-478.25 139.83,-478.25 136.75,-475.17 136.75,-472.08 136.75,-472.08 136.75,-465.92 136.75,-465.92 136.75,-462.83 139.83,-459.75 142.92,-459.75 142.92,-459.75 242.58,-459.75 242.58,-459.75 245.67,-459.75 248.75,-462.83 248.75,-465.92 248.75,-465.92 248.75,-472.08 248.75,-472.08 248.75,-475.17 245.67,-478.25 242.58,-478.25"/>
<text xml:space="preserve" text-anchor="start" x="144.75" y="-465.7" font-family="Helvetica,sans-Serif" font-size="9.00">FretebrasMiddleware.js</text>
</a>
</g>
</g>
<!-- src/middlewares/FretebrasMiddleware.js&#45;&gt;src/services/FretebrasService.js -->
<g id="edge15" class="edge">
<title>src/middlewares/FretebrasMiddleware.js&#45;&gt;src/services/FretebrasService.js</title>
<path fill="none" stroke="#000000" stroke-width="2" stroke-opacity="0.200000" d="M235.32,-459.28C242.51,-457.36 249.88,-455.24 256.75,-453 267.41,-449.53 278.85,-445.14 288.99,-441.01"/>
<polygon fill="#000000" fill-opacity="0.200000" stroke="#000000" stroke-width="2" stroke-opacity="0.200000" points="289.62,-443.03 294.36,-438.79 288.02,-439.14 289.62,-443.03"/>
</g>
<!-- src/routes/AuthRoute.js -->
<g id="node18" class="node">
<title>src/routes/AuthRoute.js</title>
<g id="a_node18"><a xlink:href="src/routes/AuthRoute.js" xlink:title="AuthRoute.js">
<path fill="#ffffcc" stroke="black" d="M96.46,-324.25C96.46,-324.25 40.29,-324.25 40.29,-324.25 37.21,-324.25 34.12,-321.17 34.12,-318.08 34.12,-318.08 34.12,-311.92 34.12,-311.92 34.12,-308.83 37.21,-305.75 40.29,-305.75 40.29,-305.75 96.46,-305.75 96.46,-305.75 99.54,-305.75 102.62,-308.83 102.62,-311.92 102.62,-311.92 102.62,-318.08 102.62,-318.08 102.62,-321.17 99.54,-324.25 96.46,-324.25"/>
<text xml:space="preserve" text-anchor="start" x="42.12" y="-311.7" font-family="Helvetica,sans-Serif" font-size="9.00">AuthRoute.js</text>
</a>
</g>
</g>
<!-- src/routes/AuthRoute.js&#45;&gt;node_modules/express -->
<g id="edge18" class="edge">
<title>src/routes/AuthRoute.js&#45;&gt;node_modules/express</title>
<path fill="none" stroke="#000000" stroke-opacity="0.200000" d="M70.16,-305.37C72.94,-277.5 84.62,-195.74 128.75,-149 205.79,-67.4 343.45,-38.39 406.85,-29.03"/>
<polygon fill="#000000" fill-opacity="0.200000" stroke="#000000" stroke-opacity="0.200000" points="407.06,-31.12 412.7,-28.2 406.47,-26.96 407.06,-31.12"/>
</g>
<!-- src/routes/AuthRoute.js&#45;&gt;src/controllers/AuthController.js -->
<g id="edge17" class="edge">
<title>src/routes/AuthRoute.js&#45;&gt;src/controllers/AuthController.js</title>
<path fill="none" stroke="#000000" stroke-width="2" stroke-opacity="0.200000" d="M102.81,-315C114.89,-315 128.79,-315 141.97,-315"/>
<polygon fill="#000000" fill-opacity="0.200000" stroke="#000000" stroke-width="2" stroke-opacity="0.200000" points="141.91,-317.1 147.91,-315 141.91,-312.9 141.91,-317.1"/>
</g>
<!-- src/routes/FretebrasRoute.js -->
<g id="node19" class="node">
<title>src/routes/FretebrasRoute.js</title>
<g id="a_node19"><a xlink:href="src/routes/FretebrasRoute.js" xlink:title="FretebrasRoute.js">
<path fill="#ffffcc" stroke="black" d="M106.58,-386.25C106.58,-386.25 30.17,-386.25 30.17,-386.25 27.08,-386.25 24,-383.17 24,-380.08 24,-380.08 24,-373.92 24,-373.92 24,-370.83 27.08,-367.75 30.17,-367.75 30.17,-367.75 106.58,-367.75 106.58,-367.75 109.67,-367.75 112.75,-370.83 112.75,-373.92 112.75,-373.92 112.75,-380.08 112.75,-380.08 112.75,-383.17 109.67,-386.25 106.58,-386.25"/>
<text xml:space="preserve" text-anchor="start" x="32" y="-373.7" font-family="Helvetica,sans-Serif" font-size="9.00">FretebrasRoute.js</text>
</a>
</g>
</g>
<!-- src/routes/FretebrasRoute.js&#45;&gt;node_modules/express -->
<g id="edge22" class="edge">
<title>src/routes/FretebrasRoute.js&#45;&gt;node_modules/express</title>
<path fill="none" stroke="#000000" stroke-opacity="0.200000" d="M113.22,-367.58C116.03,-365.76 118.6,-363.58 120.75,-361 139.67,-338.3 114.32,-320.79 128.75,-295 197.13,-172.77 306.12,-220.66 375.5,-99 388.39,-76.4 366.4,-60.61 383.5,-41 389.46,-34.16 398.09,-30.14 406.84,-27.8"/>
<polygon fill="#000000" fill-opacity="0.200000" stroke="#000000" stroke-opacity="0.200000" points="407.26,-29.85 412.68,-26.53 406.37,-25.75 407.26,-29.85"/>
</g>
<!-- src/routes/FretebrasRoute.js&#45;&gt;src/controllers/FretebrasController.js -->
<g id="edge19" class="edge">
<title>src/routes/FretebrasRoute.js&#45;&gt;src/controllers/FretebrasController.js</title>
<path fill="none" stroke="#000000" stroke-width="2" stroke-opacity="0.200000" d="M113.21,-377C119.34,-377 125.72,-377 132.08,-377"/>
<polygon fill="#000000" fill-opacity="0.200000" stroke="#000000" stroke-width="2" stroke-opacity="0.200000" points="131.69,-379.1 137.69,-377 131.69,-374.9 131.69,-379.1"/>
</g>
<!-- src/routes/FretebrasRoute.js&#45;&gt;src/middlewares/AuthMiddleware.js -->
<g id="edge20" class="edge">
<title>src/routes/FretebrasRoute.js&#45;&gt;src/middlewares/AuthMiddleware.js</title>
<path fill="none" stroke="#000000" stroke-width="2" stroke-opacity="0.200000" d="M82.03,-386.64C93.69,-395.19 111.72,-407.59 128.75,-416 135.77,-419.46 143.47,-422.63 151.01,-425.42"/>
<polygon fill="#000000" fill-opacity="0.200000" stroke="#000000" stroke-width="2" stroke-opacity="0.200000" points="149.87,-427.24 156.23,-427.28 151.28,-423.29 149.87,-427.24"/>
</g>
<!-- src/routes/FretebrasRoute.js&#45;&gt;src/middlewares/FretebrasMiddleware.js -->
<g id="edge21" class="edge">
<title>src/routes/FretebrasRoute.js&#45;&gt;src/middlewares/FretebrasMiddleware.js</title>
<path fill="none" stroke="#000000" stroke-width="2" stroke-opacity="0.200000" d="M74.14,-386.6C82.72,-402.87 102.39,-435.8 128.75,-453 130.17,-453.93 131.64,-454.8 133.14,-455.62"/>
<polygon fill="#000000" fill-opacity="0.200000" stroke="#000000" stroke-width="2" stroke-opacity="0.200000" points="131.9,-457.35 138.22,-458.02 133.7,-453.56 131.9,-457.35"/>
</g>
<!-- src/routes/UserRoute.js -->
<g id="node20" class="node">
<title>src/routes/UserRoute.js</title>
<g id="a_node20"><a xlink:href="src/routes/UserRoute.js" xlink:title="UserRoute.js">
<path fill="#ffffcc" stroke="black" d="M96.83,-355.25C96.83,-355.25 39.92,-355.25 39.92,-355.25 36.83,-355.25 33.75,-352.17 33.75,-349.08 33.75,-349.08 33.75,-342.92 33.75,-342.92 33.75,-339.83 36.83,-336.75 39.92,-336.75 39.92,-336.75 96.83,-336.75 96.83,-336.75 99.92,-336.75 103,-339.83 103,-342.92 103,-342.92 103,-349.08 103,-349.08 103,-352.17 99.92,-355.25 96.83,-355.25"/>
<text xml:space="preserve" text-anchor="start" x="41.75" y="-342.7" font-family="Helvetica,sans-Serif" font-size="9.00">UserRoute.js</text>
</a>
</g>
</g>
<!-- src/routes/UserRoute.js&#45;&gt;node_modules/express -->
<g id="edge25" class="edge">
<title>src/routes/UserRoute.js&#45;&gt;node_modules/express</title>
<path fill="none" stroke="#000000" stroke-opacity="0.200000" d="M103.37,-341.69C110.07,-339.28 116.38,-335.59 120.75,-330 139.53,-305.98 112.36,-218.72 128.75,-193 195.7,-87.94 291.73,-152.21 375.5,-60 381.66,-53.22 376.63,-47.06 383.5,-41 390,-35.27 398.4,-31.57 406.74,-29.2"/>
<polygon fill="#000000" fill-opacity="0.200000" stroke="#000000" stroke-opacity="0.200000" points="407.2,-31.25 412.54,-27.79 406.21,-27.17 407.2,-31.25"/>
</g>
<!-- src/routes/UserRoute.js&#45;&gt;src/controllers/UserController.js -->
<g id="edge23" class="edge">
<title>src/routes/UserRoute.js&#45;&gt;src/controllers/UserController.js</title>
<path fill="none" stroke="#000000" stroke-width="2" stroke-opacity="0.200000" d="M103.46,-346C115.3,-346 128.83,-346 141.69,-346"/>
<polygon fill="#000000" fill-opacity="0.200000" stroke="#000000" stroke-width="2" stroke-opacity="0.200000" points="141.42,-348.1 147.42,-346 141.42,-343.9 141.42,-348.1"/>
</g>
<!-- src/routes/UserRoute.js&#45;&gt;src/middlewares/AuthMiddleware.js -->
<g id="edge24" class="edge">
<title>src/routes/UserRoute.js&#45;&gt;src/middlewares/AuthMiddleware.js</title>
<path fill="none" stroke="#000000" stroke-width="2" stroke-opacity="0.200000" d="M103.27,-350.7C109.9,-353.1 116.19,-356.68 120.75,-362 136.53,-380.43 113.29,-397.3 128.75,-416 131.63,-419.48 135.09,-422.41 138.9,-424.88"/>
<polygon fill="#000000" fill-opacity="0.200000" stroke="#000000" stroke-width="2" stroke-opacity="0.200000" points="137.64,-426.59 143.91,-427.63 139.66,-422.9 137.64,-426.59"/>
</g>
</g>
</svg>
